<?xml version="1.0" standalone="no"?><!DOCTYPE svg PUBLIC "-//W3C//DTD SVG 1.1//EN" "http://www.w3.org/Graphics/SVG/1.1/DTD/svg11.dtd"><svg t="1584588159792" class="icon" viewBox="0 0 1024 1024" version="1.1" xmlns="http://www.w3.org/2000/svg" p-id="8995" xmlns:xlink="http://www.w3.org/1999/xlink" width="200" height="200"><defs><style type="text/css"></style></defs><path d="M5.9 82.1l272.7 243.8 60.4-24z" fill="#050505" p-id="8996"></path><path d="M5.9 82.1l77.2 380.5 195.5-136.7z" fill="#98CC98" p-id="8997"></path><path d="M1014.2 61.4L768.3 316l-57.4-27.8z" fill="#050505" p-id="8998"></path><path d="M1014.2 61.4l-57.7 408.4L768.3 316z" fill="#98CC98" p-id="8999"></path><path d="M61.5 560.2a462.6 410.8 0 1 0 925.2 0 462.6 410.8 0 1 0-925.2 0Z" fill="#050505" p-id="9000"></path><path d="M550 552.8a199.8 233.2 0 1 0 399.6 0 199.8 233.2 0 1 0-399.6 0Z" fill="#FFFFCC" p-id="9001"></path><path d="M105.9 552.8a199.8 233.2 0 1 0 399.6 0 199.8 233.2 0 1 0-399.6 0Z" fill="#FFFFCC" p-id="9002"></path><path d="M269.7 552.8a36 42 0 1 0 72 0 36 42 0 1 0-72 0Z" fill="#050505" p-id="9003"></path><path d="M712.1 552.8a37.7 44 0 1 0 75.4 0 37.7 44 0 1 0-75.4 0Z" fill="#050505" p-id="9004"></path><path d="M524.1 946l-51.3-88.8h102.5z" fill="#327798" p-id="9005"></path></svg>